<?xml version="1.0" standalone="no"?>
<!DOCTYPE svg PUBLIC "-//W3C//DTD SVG 20010904//EN"
 "http://www.w3.org/TR/2001/REC-SVG-20010904/DTD/svg10.dtd">
<svg version="1.0" xmlns="http://www.w3.org/2000/svg"
 width="512.000000pt" height="512.000000pt" viewBox="0 0 512.000000 512.000000"
 preserveAspectRatio="xMidYMid meet">

<g transform="translate(0.000000,512.000000) scale(0.100000,-0.100000)"
fill="#000000" stroke="none">
<path d="M670 5101 c-275 -58 -507 -256 -613 -521 -59 -150 -57 -65 -57 -2024
0 -2050 -7 -1889 89 -2081 88 -178 209 -298 386 -386 192 -96 31 -89 2085 -89
2054 0 1893 -7 2085 89 178 88 297 207 386 386 96 192 89 30 89 2085 0 1739
-1 1798 -20 1889 -43 212 -176 408 -354 525 -107 69 -188 104 -299 127 -88 18
-165 19 -1892 18 -1692 0 -1805 -1 -1885 -18z m3815 -174 c119 -42 181 -81
271 -171 90 -90 129 -152 171 -271 l28 -80 0 -1845 0 -1845 -28 -80 c-42 -119
-81 -181 -171 -271 -90 -90 -152 -129 -271 -171 l-80 -28 -1845 0 -1845 0 -80
28 c-119 42 -181 81 -271 171 -90 90 -129 152 -171 271 l-28 80 0 1845 0 1845
28 80 c39 110 79 176 154 256 74 78 148 130 236 166 132 54 44 52 2002 50
l1820 -2 80 -28z"/>
<path d="M1255 4626 c-141 -35 -360 -205 -493 -382 -374 -500 -374 -1257 -1
-2004 405 -809 1206 -1476 2024 -1685 219 -56 326 -69 550 -69 277 0 460 36
671 134 244 113 480 332 588 547 83 166 45 368 -94 496 -46 43 -79 62 -176
101 -65 27 -204 89 -309 140 l-190 91 -95 0 c-85 0 -101 -3 -154 -29 -95 -46
-136 -96 -220 -264 -41 -82 -86 -162 -100 -180 -39 -46 -119 -82 -182 -82
-120 0 -443 138 -654 279 -439 293 -801 750 -945 1194 -42 130 -45 191 -11
262 32 69 65 94 238 181 168 84 218 125 264 220 26 53 29 69 29 154 l0 95 -91
190 c-51 105 -111 237 -134 295 -23 58 -55 123 -70 146 -100 144 -277 212
-445 170z m225 -182 c29 -16 63 -42 75 -59 13 -16 53 -100 89 -187 36 -86 94
-215 130 -287 52 -104 66 -140 66 -176 0 -52 -21 -109 -53 -143 -20 -22 -175
-107 -182 -100 -6 7 -445 912 -442 913 1 1 17 12 35 25 83 57 193 63 282 14z
m-232 -585 l214 -441 -50 -48 c-93 -89 -138 -201 -130 -324 7 -95 71 -285 153
-451 194 -394 512 -752 894 -1006 243 -162 557 -296 718 -307 127 -8 250 45
338 146 l31 35 439 -213 c242 -117 442 -215 445 -218 10 -8 -126 -126 -205
-177 -144 -94 -274 -147 -458 -187 -145 -31 -458 -31 -627 0 -438 80 -860 281
-1260 601 -129 102 -386 361 -493 496 -310 389 -509 810 -589 1250 -32 173
-32 475 0 622 40 185 101 334 192 468 48 70 156 195 168 195 4 0 103 -199 220
-441z m2693 -2098 c90 -44 220 -103 288 -131 148 -60 177 -80 216 -151 51 -92
39 -213 -29 -302 -12 -16 -23 -13 -147 49 -74 37 -183 90 -244 119 -197 95
-530 256 -533 260 -7 7 77 161 100 182 34 32 87 52 139 53 38 0 76 -15 210
-79z"/>
<path d="M2984 4056 c-181 -44 -304 -227 -274 -408 11 -72 42 -139 87 -189
l33 -37 -32 -13 c-62 -24 -172 -101 -233 -163 -171 -172 -282 -438 -286 -690
-1 -78 1 -91 20 -110 l22 -21 749 0 749 0 22 22 c20 20 22 31 21 105 -6 250
-105 498 -272 682 -54 58 -194 158 -249 177 l-31 11 33 37 c183 203 77 534
-192 597 -67 16 -100 16 -167 0z m192 -181 c140 -82 126 -298 -23 -361 -41
-18 -124 -18 -166 -1 -50 22 -103 87 -115 144 -39 178 146 310 304 218z m-4
-576 c262 -54 486 -339 525 -669 l6 -50 -633 0 -633 0 6 50 c45 376 317 675
619 679 31 1 81 -4 110 -10z"/>
</g>
</svg>
