<?xml version="1.0" standalone="no"?>
<!DOCTYPE svg PUBLIC "-//W3C//DTD SVG 20010904//EN"
 "http://www.w3.org/TR/2001/REC-SVG-20010904/DTD/svg10.dtd">
<svg version="1.0" xmlns="http://www.w3.org/2000/svg"
 width="512.000000pt" height="512.000000pt" viewBox="0 0 512.000000 512.000000"
 preserveAspectRatio="xMidYMid meet">

<g transform="translate(0.000000,512.000000) scale(0.100000,-0.100000)"
fill="#000000" stroke="none">
<path d="M635 4595 c-318 -59 -556 -294 -620 -611 -14 -71 -15 -254 -13 -1714
3 -1844 -5 -1668 85 -1850 39 -81 60 -109 142 -191 82 -82 110 -103 191 -142
182 -90 -22 -82 2140 -82 2162 0 1958 -8 2140 82 81 39 109 60 191 142 82 82
103 110 142 191 90 182 82 6 85 1850 3 1804 6 1710 -59 1867 -79 188 -248 351
-437 420 -146 54 -73 52 -2067 52 -1476 -1 -1864 -3 -1920 -14z m3900 -187
c154 -53 280 -162 349 -303 35 -69 65 -180 66 -236 0 -26 -1 -27 -77 -31 -88
-4 -139 -24 -189 -75 -67 -67 -69 -74 -72 -335 -3 -216 -2 -241 16 -280 47
-106 128 -158 250 -158 l72 0 0 -129 0 -129 -78 -3 c-59 -3 -90 -10 -127 -30
-56 -28 -109 -91 -125 -147 -5 -20 -10 -136 -10 -257 0 -191 3 -225 19 -260
46 -103 130 -155 248 -155 l73 0 0 -129 0 -128 -83 -5 c-96 -5 -157 -33 -203
-93 -48 -64 -53 -93 -53 -330 0 -237 5 -266 53 -330 46 -60 107 -88 203 -93
82 -4 83 -5 83 -31 -1 -57 -32 -170 -66 -241 -51 -103 -161 -213 -264 -264
-143 -70 -16 -66 -2060 -66 -2044 0 -1917 -4 -2059 66 -84 41 -210 158 -249
232 l-23 42 69 0 c89 0 158 21 209 65 145 123 106 356 -72 431 -23 9 -72 14
-150 14 l-115 0 0 260 0 260 118 0 c92 0 126 4 157 19 169 76 202 306 62 426
-55 48 -120 65 -239 65 l-98 0 0 254 0 254 123 4 c141 4 181 19 241 90 35 40
66 117 66 163 0 60 -33 131 -83 180 -65 63 -104 75 -241 75 l-106 0 0 254 0
253 118 5 c158 7 222 39 277 139 67 124 18 282 -107 345 -38 19 -72 27 -139
31 l-88 6 22 39 c34 61 121 152 184 194 65 43 159 80 237 93 28 5 890 8 1916
7 l1865 -1 80 -27z m-4172 -489 c28 -8 42 -19 54 -45 16 -31 16 -37 0 -69 -20
-43 -67 -57 -170 -53 l-72 3 -3 55 c-2 30 -1 70 3 88 l6 32 72 0 c40 0 89 -5
110 -11z m4587 -504 l0 -255 -60 0 c-51 0 -65 4 -85 25 -25 24 -25 25 -25 227
1 144 4 208 13 219 21 27 51 38 105 39 l52 0 0 -255z m-4554 -539 c39 -33 39
-89 0 -122 -25 -22 -36 -24 -127 -24 l-99 0 0 85 0 85 99 0 c91 0 102 -2 127
-24z m4554 -571 l0 -255 -60 0 c-51 0 -65 4 -85 25 -25 24 -25 25 -25 227 1
144 4 208 13 219 21 27 51 38 105 39 l52 0 0 -255z m-4575 -437 c33 -15 58
-62 49 -91 -3 -12 -16 -32 -27 -44 -19 -21 -29 -23 -124 -23 l-103 0 0 85 0
85 90 0 c49 0 101 -5 115 -12z m4575 -673 l0 -255 -60 0 c-51 0 -65 4 -85 25
-25 24 -25 25 -25 230 l0 206 26 24 c22 21 37 25 85 25 l59 0 0 -255z m-4553
-367 c30 -33 36 -63 19 -96 -21 -40 -55 -52 -150 -52 -98 0 -96 -2 -96 101 l0
69 103 0 c95 0 105 -2 124 -22z"/>
<path d="M2355 3919 c-627 -42 -1180 -458 -1400 -1054 -260 -701 -1 -1497 620
-1908 171 -113 384 -202 576 -241 416 -85 849 -2 1209 231 834 541 983 1714
311 2448 -341 371 -810 558 -1316 524z m256 -169 c659 -66 1181 -553 1294
-1205 19 -107 21 -338 5 -445 -27 -176 -84 -346 -168 -497 -44 -81 -149 -228
-165 -235 -5 -2 -19 29 -32 69 -82 258 -293 438 -598 507 l-29 7 46 49 c150
160 203 326 193 605 -6 174 -20 235 -79 355 -33 66 -61 103 -123 165 -134 135
-288 199 -475 200 -129 0 -188 -14 -309 -72 -79 -38 -108 -59 -177 -127 -68
-69 -89 -98 -127 -177 -65 -136 -72 -174 -72 -394 0 -171 2 -197 23 -265 34
-108 86 -200 153 -274 l59 -64 -53 -12 c-232 -54 -434 -205 -528 -394 -22 -45
-46 -104 -53 -131 -7 -28 -16 -50 -21 -50 -4 0 -39 43 -76 95 -270 376 -346
860 -203 1298 157 477 566 851 1054 961 171 39 296 47 461 31z m25 -620 c159
-55 277 -175 327 -334 19 -62 22 -93 22 -236 0 -143 -3 -174 -22 -236 -58
-183 -202 -311 -397 -350 -277 -57 -549 138 -597 426 -12 74 -11 250 2 330 32
203 210 384 410 419 73 13 186 5 255 -19z m304 -1360 c236 -57 400 -210 455
-425 8 -32 15 -80 15 -106 l0 -47 -90 -63 c-183 -130 -389 -217 -600 -255
-115 -21 -351 -23 -465 -5 -233 38 -453 131 -648 275 -66 49 -67 51 -67 95 1
187 132 387 310 474 147 72 177 76 615 76 359 1 397 -1 475 -19z"/>
</g>
</svg>
