<?xml version="1.0" standalone="no"?>
<!DOCTYPE svg PUBLIC "-//W3C//DTD SVG 20010904//EN"
 "http://www.w3.org/TR/2001/REC-SVG-20010904/DTD/svg10.dtd">
<svg version="1.0" xmlns="http://www.w3.org/2000/svg"
 width="512.000000pt" height="512.000000pt" viewBox="0 0 512.000000 512.000000"
 preserveAspectRatio="xMidYMid meet">

<g transform="translate(0.000000,512.000000) scale(0.100000,-0.100000)"
fill="#000000" stroke="none">
<path d="M3545 5095 l-25 -24 0 -1216 0 -1215 -120 0 -120 0 0 560 0 560 55 0
c46 0 60 4 80 25 25 24 25 26 25 215 0 189 0 191 -25 215 l-24 25 -256 0 -255
0 0 295 0 296 -25 24 c-32 33 -78 33 -110 0 l-25 -24 0 -296 0 -295 -255 0
-256 0 -24 -25 c-25 -24 -25 -26 -25 -215 0 -189 0 -191 25 -215 20 -21 34
-25 80 -25 l55 0 0 -560 0 -560 -200 0 -200 0 0 45 c0 31 4 45 14 45 32 0 156
73 196 116 100 109 128 240 91 420 -58 279 -176 497 -301 553 -60 28 -106 26
-168 -5 -72 -36 -125 -100 -188 -229 -75 -152 -117 -314 -118 -455 -1 -98 1
-109 31 -172 42 -90 100 -150 186 -193 38 -19 76 -35 83 -35 10 0 14 -14 14
-45 l0 -45 -440 0 -440 0 0 205 0 205 28 6 c51 12 142 67 180 108 22 24 59 50
86 60 252 96 341 404 179 618 -45 58 -132 119 -197 138 -32 9 -46 18 -46 30 0
10 -16 49 -35 87 -43 86 -103 144 -193 186 -61 29 -76 32 -162 32 -86 0 -101
-3 -162 -32 -37 -17 -87 -50 -112 -73 -59 -54 -113 -161 -122 -240 -4 -37 -11
-60 -19 -60 -7 0 -44 -16 -82 -35 -86 -43 -144 -103 -186 -193 -29 -61 -32
-76 -32 -162 0 -86 3 -101 32 -162 43 -91 101 -151 187 -193 84 -42 175 -54
255 -35 50 12 52 11 98 -19 26 -18 69 -39 95 -49 l48 -17 0 -202 0 -203 -335
0 -336 0 -26 -26 -26 -26 6 -139 c25 -553 221 -1069 568 -1498 94 -117 274
-297 390 -389 367 -293 793 -474 1284 -544 119 -17 512 -16 635 1 664 92 1241
412 1665 926 233 282 438 703 513 1055 53 245 55 274 59 847 l5 542 -26 26
-25 25 -216 0 -215 0 0 815 0 816 -25 24 -24 25 -511 0 -511 0 -24 -25z m935
-1295 l0 -1160 -400 0 -400 0 0 1160 0 1160 400 0 400 0 0 -1160z m-3686 348
c85 -25 166 -136 166 -227 0 -47 38 -81 92 -81 91 -1 173 -51 213 -130 73
-144 -17 -323 -173 -346 -40 -6 -55 -15 -102 -65 -48 -50 -86 -79 -104 -79 -3
0 -6 68 -6 150 l0 150 -80 0 -80 0 0 -150 c0 -82 -3 -150 -6 -150 -14 0 -52
26 -91 61 -24 22 -51 39 -61 39 -10 0 -45 -9 -77 -21 -116 -41 -228 -4 -290
95 -27 44 -30 58 -30 126 0 68 3 82 30 126 41 66 102 102 190 113 94 11 109
30 100 122 -9 93 7 142 70 204 70 71 145 90 239 63z m2486 -148 l0 -80 -480 0
-480 0 0 80 0 80 480 0 480 0 0 -80z m-160 -800 l0 -560 -320 0 -320 0 0 560
0 560 320 0 320 0 0 -560z m-1225 439 c76 -84 168 -321 181 -470 8 -86 -7
-145 -53 -199 -30 -35 -79 -70 -98 -70 -3 0 -5 68 -5 150 l0 150 -80 0 -80 0
0 -150 c0 -82 -2 -150 -5 -150 -19 0 -68 35 -98 70 -66 78 -72 179 -22 356 49
170 155 354 205 354 10 0 34 -18 55 -41z m3065 -679 l0 -320 -160 0 -160 0 0
320 0 320 160 0 160 0 0 -320z m-3586 -497 c3 -10 19 -97 36 -195 l30 -176
-80 -163 c-56 -112 -79 -168 -74 -183 3 -12 41 -75 85 -141 62 -94 88 -147
122 -240 23 -66 46 -126 50 -133 10 -15 201 -112 221 -112 8 0 136 52 284 116
l270 115 68 -34 c38 -19 121 -51 184 -72 136 -45 241 -95 356 -172 l84 -56
-17 -26 c-9 -14 -36 -55 -59 -91 -63 -96 -63 -98 0 -228 l55 -112 -82 0 -82 0
-120 80 c-66 44 -129 80 -140 80 -11 0 -87 -18 -170 -40 -142 -38 -158 -40
-295 -40 l-145 0 -76 78 c-42 42 -109 126 -150 186 -72 106 -79 113 -234 229
-87 67 -171 127 -186 134 -24 12 -44 10 -182 -25 l-154 -39 -109 76 -109 76
-140 5 -140 5 -65 130 c-140 282 -220 574 -246 898 l-6 87 605 0 c568 0 606
-1 611 -17z m2515 -117 c18 -73 39 -143 47 -154 9 -13 55 -34 124 -57 125 -42
105 -13 156 -220 l27 -110 73 -75 73 -76 -20 -79 c-43 -170 -29 -150 -123
-183 l-84 -31 -120 40 c-130 42 -155 42 -185 -1 -9 -12 -35 -100 -58 -195 -36
-147 -41 -177 -31 -199 7 -16 64 -60 148 -116 l136 -90 66 0 65 0 -23 -25
c-13 -14 -69 -61 -125 -105 -551 -431 -1271 -601 -1955 -460 -470 97 -887 323
-1225 665 -94 95 -265 301 -265 319 0 3 24 6 53 6 48 0 60 -5 172 -80 66 -44
128 -80 138 -80 10 0 81 16 157 35 76 19 143 35 148 35 5 0 70 -46 145 -102
134 -101 138 -105 221 -228 56 -84 113 -154 174 -212 l89 -88 187 0 c181 0
192 1 327 35 l141 36 117 -76 117 -75 187 0 c186 0 188 0 212 25 14 13 25 36
25 50 0 14 -33 92 -74 173 l-73 147 73 110 c71 105 82 133 68 170 -9 23 -253
184 -360 238 -49 24 -141 61 -204 82 -63 21 -151 58 -196 81 -44 24 -93 44
-109 44 -15 0 -148 -52 -295 -116 l-268 -115 -50 25 c-28 14 -53 34 -56 43
-51 178 -61 201 -129 302 l-70 105 72 143 c44 90 71 155 71 176 0 18 -13 107
-30 197 -16 90 -30 172 -30 182 0 17 52 18 1158 18 l1158 0 33 -134z m1067 47
c-39 -503 -233 -983 -551 -1365 l-57 -68 -121 0 -121 0 -88 57 c-48 32 -86 63
-84 68 2 6 11 45 21 88 10 42 23 77 29 77 5 0 47 -12 93 -27 l84 -27 145 48
c103 34 149 54 159 69 16 26 95 334 95 373 0 21 -20 48 -83 113 l-84 86 -37
150 c-20 83 -44 160 -51 172 -10 14 -50 33 -124 58 -73 24 -112 42 -115 53 -3
9 -14 50 -25 90 l-20 72 471 0 470 0 -6 -87z"/>
<path d="M3840 4720 l0 -80 80 0 80 0 0 80 0 80 -80 0 -80 0 0 -80z"/>
<path d="M4160 4720 l0 -80 80 0 80 0 0 80 0 80 -80 0 -80 0 0 -80z"/>
<path d="M3840 4400 l0 -80 80 0 80 0 0 80 0 80 -80 0 -80 0 0 -80z"/>
<path d="M4160 4400 l0 -80 80 0 80 0 0 80 0 80 -80 0 -80 0 0 -80z"/>
<path d="M3840 4080 l0 -80 80 0 80 0 0 80 0 80 -80 0 -80 0 0 -80z"/>
<path d="M4160 4080 l0 -80 80 0 80 0 0 80 0 80 -80 0 -80 0 0 -80z"/>
<path d="M3840 3760 l0 -80 80 0 80 0 0 80 0 80 -80 0 -80 0 0 -80z"/>
<path d="M4160 3760 l0 -80 80 0 80 0 0 80 0 80 -80 0 -80 0 0 -80z"/>
<path d="M3840 3440 l0 -80 80 0 80 0 0 80 0 80 -80 0 -80 0 0 -80z"/>
<path d="M4160 3440 l0 -80 80 0 80 0 0 80 0 80 -80 0 -80 0 0 -80z"/>
<path d="M3840 3120 l0 -80 80 0 80 0 0 80 0 80 -80 0 -80 0 0 -80z"/>
<path d="M4160 3120 l0 -80 80 0 80 0 0 80 0 80 -80 0 -80 0 0 -80z"/>
<path d="M2640 3520 l0 -80 160 0 160 0 0 80 0 80 -160 0 -160 0 0 -80z"/>
<path d="M2640 3200 l0 -80 160 0 160 0 0 80 0 80 -160 0 -160 0 0 -80z"/>
<path d="M2640 2880 l0 -80 160 0 160 0 0 80 0 80 -160 0 -160 0 0 -80z"/>
<path d="M4720 3120 l0 -80 80 0 80 0 0 80 0 80 -80 0 -80 0 0 -80z"/>
<path d="M4720 2800 l0 -80 80 0 80 0 0 80 0 80 -80 0 -80 0 0 -80z"/>
<path d="M2965 2235 c-214 -86 -245 -106 -245 -152 0 -23 233 -424 265 -457 8
-7 114 -53 235 -102 l221 -88 177 44 c132 32 182 49 199 66 22 22 23 28 23
214 0 185 -1 192 -23 214 -18 18 -60 30 -216 61 l-193 38 -78 117 c-43 65 -86
120 -95 124 -33 12 -64 3 -270 -79z m274 -199 c38 -57 76 -106 83 -108 7 -3
91 -20 186 -39 l172 -33 0 -97 0 -96 -117 -32 -118 -31 -176 72 -175 72 -81
136 c-45 75 -83 142 -85 150 -2 8 38 30 112 61 63 26 118 48 122 48 4 1 39
-46 77 -103z"/>
</g>
</svg>
