<?xml version="1.0" standalone="no"?>
<!DOCTYPE svg PUBLIC "-//W3C//DTD SVG 20010904//EN"
 "http://www.w3.org/TR/2001/REC-SVG-20010904/DTD/svg10.dtd">
<svg version="1.0" xmlns="http://www.w3.org/2000/svg"
 width="512.000000pt" height="512.000000pt" viewBox="0 0 512.000000 512.000000"
 preserveAspectRatio="xMidYMid meet">

<g transform="translate(0.000000,512.000000) scale(0.100000,-0.100000)"
fill="#000000" stroke="none">
<path d="M1911 4963 c-14 -12 -34 -57 -54 -122 l-32 -104 -110 -37 c-94 -31
-112 -41 -124 -65 -23 -47 -5 -73 96 -145 l92 -65 1 -116 c0 -108 2 -117 23
-137 38 -36 68 -28 162 43 48 36 92 65 98 65 6 0 54 -14 107 -32 108 -35 140
-33 167 8 16 25 15 30 -21 139 l-37 113 66 90 c74 102 82 137 39 171 -23 18
-41 21 -139 21 l-113 0 -48 68 c-26 37 -58 79 -72 95 -30 31 -69 35 -101 10z
m212 -324 c31 0 57 -2 57 -7 0 -4 -14 -25 -30 -46 -34 -45 -36 -65 -15 -126 8
-23 15 -44 15 -46 0 -2 -19 3 -41 11 -61 22 -90 18 -137 -16 l-42 -31 0 57 c0
59 -9 74 -74 121 l-29 21 39 13 c63 20 81 36 99 91 l17 51 42 -47 c41 -47 42
-48 99 -46z"/>
<path d="M3074 4677 c-157 -116 -319 -310 -434 -520 -37 -68 -41 -82 -33 -110
11 -40 55 -64 92 -51 16 6 38 30 58 64 122 212 278 403 405 496 58 43 74 75
58 115 -11 25 -46 49 -74 49 -8 0 -40 -19 -72 -43z"/>
<path d="M3706 4609 c-52 -41 -23 -129 44 -129 65 0 93 78 45 125 -30 30 -54
31 -89 4z"/>
<path d="M4235 4290 c-443 -29 -832 -178 -1181 -451 -177 -139 -404 -386 -529
-577 -15 -23 -29 -41 -31 -39 -6 6 25 181 46 257 34 121 35 151 10 183 -30 38
-70 36 -104 -3 -32 -39 -70 -159 -85 -270 -7 -47 -15 -110 -20 -140 l-7 -55
-38 74 c-200 391 -508 704 -859 872 -150 71 -375 139 -461 139 -31 0 -66 -43
-66 -80 0 -42 29 -59 141 -85 258 -58 454 -156 658 -329 183 -155 386 -427
492 -664 l28 -62 -72 41 c-296 168 -599 267 -885 288 -189 15 -448 -14 -492
-54 -26 -24 -26 -79 0 -105 22 -22 64 -26 120 -10 69 19 253 29 369 19 230
-18 436 -80 681 -202 l145 -72 -190 -6 c-206 -7 -325 -23 -506 -69 -285 -71
-562 -209 -784 -390 -85 -70 -254 -243 -316 -325 -139 -182 -295 -458 -284
-504 11 -48 73 -78 112 -53 7 5 42 63 78 131 185 348 405 589 709 778 267 166
616 268 956 280 l155 5 -77 -45 c-289 -168 -506 -407 -697 -768 -69 -131 -75
-166 -35 -198 33 -26 68 -27 93 -2 11 11 44 68 75 128 148 288 333 510 546
652 77 51 226 131 245 131 4 0 -2 -12 -13 -27 -30 -43 -116 -218 -156 -321
-174 -442 -276 -1145 -276 -1899 0 -277 0 -283 22 -303 29 -27 73 -26 102 3
l23 23 6 370 c6 446 31 748 87 1074 82 474 204 817 373 1054 l35 49 31 -49
c100 -157 236 -469 306 -699 52 -172 119 -452 155 -650 34 -186 45 -208 101
-208 48 0 82 42 73 91 -78 455 -181 843 -301 1131 -36 89 -138 297 -179 368
l-25 41 68 -15 c352 -80 738 -313 1043 -629 139 -145 221 -247 345 -434 152
-230 281 -477 382 -735 45 -115 68 -140 117 -131 53 10 73 44 56 99 -45 151
-242 554 -374 767 -175 281 -434 580 -661 763 -248 200 -532 351 -805 428
l-94 26 39 21 c155 78 367 150 510 172 84 13 105 30 105 81 0 54 -35 80 -98
73 -146 -18 -332 -75 -499 -154 -57 -27 -103 -47 -103 -44 0 12 93 153 166
251 155 209 384 423 585 548 291 181 576 271 933 295 158 11 176 19 176 80 0
41 -20 66 -60 73 -14 2 -74 1 -135 -3z"/>
<path d="M4729 3910 c-47 -53 -67 -69 -83 -65 -11 2 -51 7 -88 10 -63 6 -69 5
-93 -19 -36 -36 -32 -70 19 -151 44 -69 44 -70 29 -105 -51 -117 -55 -131 -49
-154 3 -14 18 -33 32 -43 25 -16 31 -15 116 4 l90 20 66 -58 c75 -66 108 -74
146 -36 19 19 25 38 31 110 l7 87 73 41 c70 40 95 69 95 107 -1 31 -27 53
-106 86 -85 35 -83 34 -104 139 -14 70 -37 97 -84 97 -30 0 -43 -9 -97 -70z
m110 -251 c30 -22 30 -23 10 -37 -12 -8 -29 -32 -38 -53 -16 -36 -19 -38 -37
-24 -10 8 -37 15 -59 15 l-40 0 3 44 c2 24 -1 53 -7 65 -11 19 -9 21 23 21 22
0 45 9 63 24 l28 24 11 -28 c7 -15 26 -38 43 -51z"/>
<path d="M467 3902 c-24 -26 -22 -85 3 -107 47 -42 120 -8 120 56 0 60 -84 94
-123 51z"/>
<path d="M3631 3254 c-26 -33 -27 -65 -3 -94 16 -20 34 -25 143 -36 408 -42
776 -191 1143 -463 65 -49 119 -81 133 -81 30 0 73 42 73 70 0 35 -16 54 -97
117 -360 278 -782 455 -1198 503 -145 16 -170 14 -194 -16z"/>
<path d="M453 3210 c-95 -38 -392 -283 -430 -354 -26 -50 11 -106 70 -106 16
0 45 21 88 63 96 93 165 149 270 220 86 58 94 66 97 98 5 58 -45 99 -95 79z"/>
<path d="M4371 2624 c-28 -35 -26 -69 4 -99 27 -28 45 -31 78 -14 30 16 37 28
37 71 0 66 -78 94 -119 42z"/>
<path d="M4750 1632 c-49 -40 -17 -132 47 -132 32 0 73 42 73 75 0 33 -41 75
-73 75 -14 0 -35 -8 -47 -18z"/>
<path d="M1043 1445 c-35 -25 -111 -306 -97 -361 13 -51 72 -69 117 -34 19 15
28 35 36 85 6 35 23 103 36 150 31 106 31 126 2 153 -27 26 -64 28 -94 7z"/>
<path d="M273 1308 c-21 -10 -35 -38 -65 -137 -14 -44 -15 -45 -98 -72 -89
-28 -110 -46 -110 -91 0 -33 15 -49 93 -102 l57 -39 0 -89 c0 -81 2 -91 25
-113 34 -35 64 -31 131 18 33 24 65 46 72 51 7 4 48 -4 93 -19 90 -30 114 -27
144 19 16 24 15 30 -11 110 l-28 86 20 27 c92 125 97 138 60 188 -12 17 -28
21 -109 23 l-95 4 -42 59 c-60 86 -87 101 -137 77z m135 -289 c28 -9 30 -13
21 -31 -6 -11 -9 -37 -7 -58 3 -37 3 -38 -28 -33 -18 3 -44 -2 -62 -11 l-32
-17 0 30 c0 17 -10 42 -24 58 l-24 27 22 11 c11 6 30 25 41 42 20 31 20 31 40
12 12 -10 35 -24 53 -30z"/>
<path d="M3522 1164 c-12 -8 -38 -51 -58 -94 -39 -85 -34 -81 -134 -95 -103
-14 -130 -34 -130 -92 0 -22 16 -43 70 -95 l71 -67 -16 -91 c-15 -84 -15 -94
0 -116 9 -14 28 -30 42 -37 23 -10 35 -6 114 36 l88 47 73 -40 c82 -45 128
-50 158 -20 24 24 25 58 6 157 l-13 71 68 68 c53 52 69 75 69 97 0 41 -37 73
-96 81 -27 4 -67 9 -90 12 -40 6 -42 8 -80 86 -52 107 -88 130 -142 92z m110
-306 c18 -10 39 -18 46 -18 9 0 4 -12 -13 -32 -22 -26 -26 -40 -23 -75 3 -36
1 -42 -12 -36 -28 12 -98 15 -119 4 -20 -11 -21 -9 -21 27 0 25 -9 52 -24 74
l-24 36 39 11 c26 8 47 23 62 46 l22 33 17 -26 c10 -15 32 -35 50 -44z"/>
<path d="M2403 1150 c-44 -18 -57 -86 -23 -120 26 -26 81 -26 103 -2 22 25 22
85 0 104 -25 22 -54 28 -80 18z"/>
<path d="M967 452 c-24 -26 -22 -85 3 -107 46 -42 120 -7 120 56 0 60 -84 94
-123 51z"/>
</g>
</svg>
