<?xml version="1.0" standalone="no"?>
<!DOCTYPE svg PUBLIC "-//W3C//DTD SVG 20010904//EN"
 "http://www.w3.org/TR/2001/REC-SVG-20010904/DTD/svg10.dtd">
<svg version="1.0" xmlns="http://www.w3.org/2000/svg"
 width="512.000000pt" height="512.000000pt" viewBox="0 0 512.000000 512.000000"
 preserveAspectRatio="xMidYMid meet">

<g transform="translate(0.000000,512.000000) scale(0.100000,-0.100000)"
fill="#000000" stroke="none">
<path d="M1323 4280 c-51 -12 -83 -38 -104 -83 -18 -40 -19 -75 -19 -672 l0
-630 -74 -39 c-203 -106 -361 -302 -442 -546 -27 -81 -28 -94 -28 -265 0 -171
1 -184 28 -265 81 -244 239 -439 441 -546 l74 -39 3 -137 c3 -151 10 -169 78
-215 l33 -23 1506 0 c1443 0 1508 1 1546 19 48 22 79 54 100 103 13 33 15 150
15 960 0 876 -1 925 -19 963 -43 93 -96 115 -276 115 l-135 0 0 213 0 212
-443 443 -443 442 -904 -1 c-498 -1 -920 -4 -937 -9z m1757 -477 c0 -362 1
-369 23 -407 12 -22 38 -49 57 -60 33 -20 53 -21 403 -24 l367 -3 0 -164 0
-165 -517 0 c-479 0 -521 -2 -558 -19 -51 -23 -102 -81 -110 -123 -3 -18 -4
-453 -3 -966 l3 -932 -700 0 c-532 0 -704 3 -713 12 -8 8 -12 46 -12 106 0 93
0 94 23 88 127 -34 350 -33 477 3 353 101 618 402 671 762 15 107 6 273 -21
374 -83 310 -339 568 -650 655 -128 36 -369 38 -482 4 -17 -5 -18 28 -18 600
0 566 1 606 18 615 11 7 312 10 880 11 l862 0 0 -367z m447 -45 c172 -172 313
-316 313 -320 0 -5 -137 -8 -304 -8 -264 0 -307 2 -320 16 -14 13 -16 56 -16
320 0 167 3 304 7 304 5 0 149 -141 320 -312z m808 -923 l25 -24 0 -911 0
-911 -25 -24 -24 -25 -699 0 c-692 0 -700 0 -726 21 l-26 20 0 917 0 916 22
23 21 23 704 0 704 0 24 -25z m-2569 -5 c103 -26 243 -96 322 -161 120 -99
226 -265 267 -414 22 -83 30 -256 16 -340 -29 -162 -98 -300 -215 -423 -168
-178 -374 -261 -620 -249 -133 6 -201 23 -321 82 -273 132 -445 410 -446 716
0 177 39 308 136 454 112 169 276 284 480 336 101 25 278 25 381 -1z"/>
<path d="M1630 3760 c-24 -24 -25 -48 -4 -78 l15 -22 558 0 c528 0 559 1 574
18 22 24 21 65 -1 85 -17 15 -71 17 -570 17 -539 0 -552 0 -572 -20z"/>
<path d="M1660 3433 c-54 -20 -65 -70 -24 -102 26 -21 35 -21 563 -21 412 0
542 3 561 13 20 10 25 20 25 52 0 32 -5 42 -25 52 -19 10 -146 13 -555 12
-291 0 -537 -3 -545 -6z"/>
<path d="M3053 2736 l-28 -24 -3 -157 c-2 -107 0 -167 9 -187 25 -60 5 -58
572 -58 375 0 524 3 540 12 44 23 46 35 47 216 0 170 0 173 -25 197 l-24 25
-530 0 -530 0 -28 -24z m1017 -196 l0 -110 -465 0 -465 0 0 103 c0 57 3 107 7
110 3 4 213 7 465 7 l458 0 0 -110z"/>
<path d="M3041 2174 c-18 -23 -21 -41 -21 -131 0 -97 2 -106 25 -128 22 -23
31 -25 128 -25 90 0 108 3 131 21 25 20 26 23 26 135 0 154 0 154 -154 154
-112 0 -115 -1 -135 -26z m169 -129 c0 -33 -2 -35 -35 -35 -33 0 -35 2 -35 35
0 33 2 35 35 35 33 0 35 -2 35 -35z"/>
<path d="M3470 2180 c-18 -18 -20 -33 -20 -134 0 -112 1 -115 26 -135 23 -18
41 -21 131 -21 97 0 106 2 128 25 23 22 25 31 25 128 0 90 -3 108 -21 131 -20
25 -23 26 -135 26 -101 0 -116 -2 -134 -20z m170 -135 c0 -33 -2 -35 -35 -35
-33 0 -35 2 -35 35 0 33 2 35 35 35 33 0 35 -2 35 -35z"/>
<path d="M3904 2159 c-15 -17 -20 -40 -22 -116 -6 -155 11 -173 162 -173 79 0
97 3 120 21 25 20 26 23 26 138 0 154 3 151 -152 151 -104 0 -117 -2 -134 -21z
m174 -131 c-3 -30 -6 -33 -38 -33 -32 0 -35 3 -38 33 -3 31 -3 32 38 32 41 0
41 -1 38 -32z"/>
<path d="M3040 1753 c-20 -25 -21 -38 -18 -135 4 -142 4 -142 146 -146 97 -3
110 -2 135 18 27 21 27 23 27 136 0 154 0 154 -154 154 -113 0 -115 0 -136
-27z m170 -123 c0 -39 -1 -40 -35 -40 -33 0 -35 2 -35 33 0 41 5 47 42 47 26
0 28 -3 28 -40z"/>
<path d="M3470 1760 c-18 -18 -20 -33 -20 -134 0 -113 0 -115 27 -136 25 -20
38 -21 136 -18 143 4 147 8 147 153 0 88 -3 106 -21 129 -20 25 -23 26 -135
26 -101 0 -116 -2 -134 -20z m168 -132 c3 -37 3 -38 -32 -38 -35 0 -36 1 -36
41 0 39 1 40 33 37 29 -3 32 -6 35 -40z"/>
<path d="M3904 1739 c-16 -17 -20 -40 -22 -125 l-4 -104 31 -31 31 -31 104 4
c145 4 146 6 146 158 0 153 3 150 -152 150 -104 0 -117 -2 -134 -21z m171
-129 c0 -33 -2 -35 -35 -35 -29 0 -36 4 -38 23 -6 40 5 54 40 50 30 -3 33 -6
33 -38z"/>
<path d="M3069 1359 c-14 -5 -31 -21 -38 -35 -14 -33 -14 -196 1 -229 16 -35
67 -48 170 -44 124 6 128 10 128 159 0 151 -2 153 -138 157 -53 1 -109 -2
-123 -8z m141 -150 c0 -39 -1 -40 -32 -37 -26 2 -34 8 -36 26 -6 37 5 52 38
52 28 0 30 -2 30 -41z"/>
<path d="M3503 1363 c-43 -8 -53 -39 -53 -154 0 -143 7 -152 119 -157 99 -5
146 3 172 29 16 16 19 33 19 119 0 113 -10 145 -53 160 -29 10 -158 12 -204 3z
m135 -155 c3 -37 3 -38 -32 -38 -35 0 -36 1 -36 41 0 39 1 40 33 37 29 -3 32
-6 35 -40z"/>
<path d="M3934 1341 c-43 -19 -54 -49 -54 -153 0 -88 2 -99 24 -125 24 -28 26
-28 134 -28 152 0 152 0 152 155 0 151 -2 154 -139 157 -53 2 -106 -1 -117 -6z
m141 -151 c0 -33 -2 -35 -35 -35 -29 0 -36 4 -38 23 -6 40 5 54 40 50 30 -3
33 -6 33 -38z"/>
<path d="M1395 2740 c-134 -35 -223 -86 -323 -183 -80 -79 -134 -162 -172
-265 -139 -381 63 -797 449 -929 101 -35 274 -43 384 -19 243 54 446 241 524
481 35 108 42 261 18 371 -57 263 -264 479 -523 545 -100 25 -260 25 -357 -1z
m329 -116 c162 -42 312 -165 384 -315 47 -98 62 -162 62 -264 0 -102 -15 -166
-62 -264 -71 -149 -223 -274 -384 -316 -74 -19 -223 -19 -297 0 -199 52 -365
211 -427 410 -33 103 -31 243 4 350 62 192 225 347 419 400 71 19 225 19 301
-1z"/>
<path d="M1553 2569 c-29 -11 -43 -39 -43 -87 0 -35 -4 -41 -28 -50 -41 -14
-90 -59 -113 -103 -45 -90 -33 -188 32 -263 43 -49 87 -70 168 -81 115 -16
158 -120 81 -196 -62 -62 -172 -24 -187 63 -11 69 -54 95 -101 62 -62 -43 17
-221 113 -256 32 -11 35 -15 35 -53 0 -55 22 -85 64 -85 44 0 56 16 56 71 0
46 1 48 45 69 124 60 168 218 94 334 -38 61 -92 94 -170 107 -104 17 -146 57
-136 132 17 129 199 130 222 1 10 -50 31 -74 66 -74 68 0 76 98 16 187 -21 32
-49 57 -84 76 -53 28 -53 29 -53 76 0 61 -30 88 -77 70z"/>
</g>
</svg>
