<?xml version="1.0" standalone="no"?>
<!DOCTYPE svg PUBLIC "-//W3C//DTD SVG 20010904//EN"
 "http://www.w3.org/TR/2001/REC-SVG-20010904/DTD/svg10.dtd">
<svg version="1.0" xmlns="http://www.w3.org/2000/svg"
 width="512.000000pt" height="512.000000pt" viewBox="0 0 512.000000 512.000000"
 preserveAspectRatio="xMidYMid meet">

<g transform="translate(0.000000,512.000000) scale(0.100000,-0.100000)"
fill="#000000" stroke="none">
<path d="M765 5105 c-104 -39 -165 -132 -165 -252 l0 -73 -108 0 c-115 0 -194
-15 -264 -51 -58 -29 -140 -110 -171 -167 -60 -110 -57 -12 -57 -1832 0 -1795
-2 -1718 50 -1821 51 -99 167 -188 280 -213 38 -9 112 -16 164 -16 53 0 96 -2
96 -5 0 -3 -16 -37 -35 -76 -50 -99 -93 -233 -109 -339 -21 -138 -1 -194 84
-237 l44 -23 1991 0 c1919 0 1991 1 2031 19 59 27 88 72 92 146 6 104 -41 284
-112 431 l-42 84 96 0 c103 0 198 18 259 49 58 30 143 113 174 168 60 112 57
11 57 1833 0 1798 2 1718 -51 1822 -12 23 -43 65 -70 93 -92 97 -196 135 -371
135 l-108 0 0 73 c0 58 -5 83 -26 125 -78 157 -290 189 -410 60 -50 -52 -67
-95 -72 -180 l-5 -78 -167 0 -167 0 -5 78 c-5 85 -22 128 -72 180 -121 129
-331 98 -410 -60 -21 -42 -26 -66 -26 -125 l0 -73 -169 0 -168 0 -6 75 c-10
118 -46 180 -136 233 -39 23 -57 27 -121 27 -64 0 -82 -4 -121 -27 -90 -53
-126 -115 -136 -233 l-6 -75 -168 0 -169 0 0 73 c0 58 -5 83 -26 125 -77 154
-275 188 -402 68 -53 -49 -75 -101 -80 -188 l-5 -78 -167 0 -167 0 -5 78 c-7
112 -53 188 -143 234 -51 27 -147 33 -200 13z m146 -184 l29 -29 0 -192 c0
-193 -4 -220 -39 -247 -27 -21 -79 -15 -106 12 -25 24 -25 25 -25 227 1 211 3
222 45 246 33 19 65 13 96 -17z m832 17 c44 -23 46 -34 47 -246 0 -202 0 -203
-25 -227 -27 -27 -79 -33 -106 -12 -35 27 -39 54 -39 247 l0 192 29 29 c31 31
59 36 94 17z m872 -12 c33 -33 37 -68 33 -266 l-3 -172 -28 -24 c-16 -13 -41
-24 -57 -24 -16 0 -41 11 -57 24 l-28 24 -3 172 c-2 95 -1 188 3 207 9 47 46
83 85 83 19 0 40 -9 55 -24z m856 -5 l29 -29 0 -192 c0 -193 -4 -220 -39 -247
-27 -21 -79 -15 -106 12 -25 24 -25 25 -25 227 1 211 3 222 45 246 33 19 65
13 96 -17z m832 17 c44 -23 46 -34 47 -246 0 -202 0 -203 -25 -227 -27 -27
-79 -33 -106 -12 -35 27 -39 54 -39 247 l0 192 29 29 c31 31 59 36 94 17z
m-3703 -400 c0 -160 103 -267 256 -268 151 0 254 115 254 284 l0 56 170 0 170
0 0 -58 c0 -167 104 -282 254 -282 153 1 256 108 256 268 l0 72 169 0 168 0 6
-72 c7 -98 30 -149 87 -201 101 -91 249 -90 344 1 52 50 77 109 83 198 l6 74
168 0 169 0 0 -72 c1 -160 103 -268 256 -268 151 0 254 115 254 284 l0 56 170
0 170 0 0 -58 c0 -167 104 -282 254 -282 153 0 255 108 256 268 l0 72 98 0
c122 0 189 -19 243 -67 74 -67 83 -96 87 -280 l4 -163 -2392 0 -2392 0 4 163
c3 143 6 167 25 202 56 104 139 144 301 145 l102 0 0 -72z m4348 -2038 c2
-1579 7 -1476 -63 -1558 -19 -22 -56 -51 -83 -64 -42 -21 -63 -23 -215 -26
l-169 -4 -85 91 c-102 109 -245 227 -374 306 -52 31 -96 59 -98 61 -2 1 13 30
33 62 52 85 46 130 -19 158 -51 21 -79 5 -127 -72 -48 -76 -32 -76 -202 -9
-304 119 -668 180 -1025 173 l-179 -3 -141 325 c-77 179 -143 332 -146 342 -5
13 9 19 82 36 48 12 126 24 173 28 l85 7 80 76 c135 129 252 180 433 188 103
5 114 8 137 31 49 48 30 96 -77 198 -336 319 -849 400 -1317 208 -218 -90
-417 -242 -560 -430 -71 -94 -165 -287 -198 -409 -24 -89 -27 -117 -28 -262 0
-157 1 -162 24 -187 17 -18 35 -26 59 -26 29 0 47 12 119 80 135 128 286 189
466 190 l78 0 57 54 c60 57 198 156 216 156 9 -1 276 -602 276 -621 0 -4 -37
-12 -82 -19 -208 -30 -478 -116 -695 -220 -238 -114 -411 -238 -576 -410 l-98
-102 -172 4 c-156 3 -176 5 -219 26 -27 13 -63 42 -82 64 -70 82 -66 -22 -66
1553 0 782 3 1425 7 1428 3 4 1078 6 2387 5 l2381 -3 3 -1425z m-2532 455 c95
-23 288 -110 342 -153 l24 -18 -101 -33 c-98 -32 -221 -98 -272 -147 l-26 -25
-30 53 c-68 120 -192 250 -308 324 l-29 19 39 7 c75 13 258 -1 361 -27z m-585
-91 c88 -26 169 -75 239 -144 64 -65 158 -195 147 -206 -3 -3 -37 -12 -77 -20
-155 -32 -310 -99 -443 -190 -43 -30 -83 -52 -87 -49 -12 8 -39 134 -46 218
-12 132 29 280 103 372 24 30 34 35 69 35 22 0 65 -7 95 -16z m-431 -245 c-15
-104 -6 -221 24 -342 13 -51 22 -93 21 -95 -2 -2 -43 -11 -93 -22 -87 -17
-217 -72 -290 -121 l-33 -22 6 39 c40 232 137 425 292 579 41 42 77 74 80 71
2 -2 -1 -42 -7 -87z m1550 -1194 c162 -25 311 -61 454 -109 151 -51 206 -73
206 -84 0 -4 -15 -32 -33 -62 l-33 -55 -410 -5 c-285 -3 -415 -9 -429 -17 -34
-19 -69 -63 -149 -183 -46 -70 -76 -125 -76 -141 0 -33 32 -75 64 -83 48 -12
73 10 156 134 l80 120 380 0 380 0 80 -120 c83 -124 110 -147 157 -135 35 8
63 45 63 81 0 23 -21 64 -75 147 l-76 114 37 62 c20 34 40 63 44 66 4 3 47
-20 96 -51 372 -233 604 -549 650 -887 l7 -47 -1958 0 -1958 0 7 62 c20 175
127 394 275 561 285 324 771 559 1302 631 l45 7 48 -113 c27 -62 60 -123 73
-135 31 -29 75 -29 108 0 36 30 35 74 -3 158 -16 36 -33 76 -37 88 l-7 24 213
-6 c118 -3 261 -13 319 -22z"/>
<path d="M3805 3488 c-35 -20 -44 -42 -45 -105 l0 -62 -42 -19 -43 -19 -49 44
c-58 52 -102 58 -141 18 -40 -39 -34 -83 19 -141 l43 -49 -18 -42 -18 -43 -65
0 c-60 0 -66 -2 -91 -32 -32 -38 -29 -81 11 -115 20 -19 37 -23 87 -23 l62 0
17 -42 18 -41 -45 -48 c-54 -58 -61 -104 -20 -144 39 -39 77 -33 135 21 l49
46 46 -18 45 -19 0 -61 c0 -96 47 -138 119 -108 37 16 51 47 51 118 0 53 0 53
42 69 l42 17 31 -28 c73 -69 119 -79 160 -37 40 39 34 83 -20 143 l-44 49 16
42 c16 41 16 41 69 41 71 0 102 14 118 51 30 72 -12 119 -108 119 l-61 0 -19
45 -18 46 46 49 c54 58 60 96 21 135 -40 40 -86 34 -142 -18 l-46 -44 -43 16
-44 16 0 63 c0 57 -3 67 -29 93 -31 30 -63 36 -96 17z m136 -363 c133 -87 65
-305 -95 -305 -114 0 -195 102 -166 209 30 114 161 162 261 96z"/>
</g>
</svg>
