<?xml version="1.0" standalone="no"?>
<!DOCTYPE svg PUBLIC "-//W3C//DTD SVG 20010904//EN"
 "http://www.w3.org/TR/2001/REC-SVG-20010904/DTD/svg10.dtd">
<svg version="1.0" xmlns="http://www.w3.org/2000/svg"
 width="512.000000pt" height="512.000000pt" viewBox="0 0 512.000000 512.000000"
 preserveAspectRatio="xMidYMid meet">

<g transform="translate(0.000000,512.000000) scale(0.100000,-0.100000)"
fill="#000000" stroke="none">
<path d="M1169 4877 c-30 -23 -39 -56 -39 -147 0 -88 1 -93 29 -121 33 -33 50
-35 90 -14 38 19 41 30 41 146 0 93 -2 102 -25 124 -26 27 -70 32 -96 12z"/>
<path d="M572 4633 c-15 -6 -42 -56 -42 -79 0 -9 35 -52 77 -95 64 -66 82 -79
109 -79 41 0 72 26 80 68 6 31 2 38 -73 112 -64 65 -85 80 -109 79 -16 0 -35
-3 -42 -6z"/>
<path d="M1703 4567 c-63 -63 -73 -78 -73 -108 0 -45 34 -79 79 -79 26 0 45
12 93 58 33 31 67 70 75 85 29 57 -8 117 -71 117 -23 0 -45 -15 -103 -73z"/>
<path d="M1082 4506 c-100 -25 -193 -80 -268 -158 -215 -227 -212 -560 6 -778
109 -109 233 -160 392 -160 156 0 279 50 389 160 80 79 123 153 149 256 50
195 -4 389 -150 534 -133 132 -336 189 -518 146z m239 -162 c216 -63 334 -286
269 -507 -31 -104 -147 -217 -258 -252 -80 -26 -210 -18 -284 17 -159 74 -255
253 -228 422 38 235 275 386 501 320z"/>
<path d="M3383 4410 c-37 -15 -43 -42 -43 -199 l0 -150 -57 -6 c-230 -25 -450
-102 -638 -223 -382 -246 -631 -681 -647 -1134 -3 -69 -1 -79 21 -102 30 -32
78 -34 109 -6 22 21 26 33 37 108 13 96 95 201 193 245 71 32 189 30 263 -5
110 -51 175 -141 190 -262 7 -57 14 -75 34 -93 60 -52 135 -7 135 80 1 71 63
167 144 221 53 35 158 76 196 76 20 0 20 -2 18 -672 l-3 -673 -750 -3 -751 -2
-18 70 c-56 218 -225 388 -441 445 -37 9 -103 15 -176 15 l-116 0 -48 138
c-63 179 -85 221 -140 270 -111 97 -279 97 -390 0 -25 -22 -58 -64 -73 -92
-23 -43 -27 -63 -26 -131 0 -77 6 -96 163 -545 89 -256 177 -489 194 -518 43
-72 128 -154 197 -191 97 -52 158 -61 423 -61 130 0 237 -2 237 -5 0 -3 -68
-157 -150 -341 -83 -185 -150 -347 -150 -360 0 -14 11 -36 25 -49 24 -25 24
-25 234 -25 204 0 211 1 234 22 15 14 90 170 188 391 l163 367 695 0 696 0
165 -371 c109 -245 173 -378 189 -390 21 -17 43 -19 228 -19 l205 0 29 29 c16
16 29 37 29 46 0 9 -66 164 -146 344 -81 179 -149 334 -151 344 -5 16 16 17
335 17 l341 0 28 24 28 24 0 250 0 250 -24 26 -24 26 -644 0 -643 0 0 675 c0
770 -12 691 98 654 137 -46 238 -155 251 -271 6 -49 13 -66 35 -85 34 -29 68
-29 101 0 21 18 28 35 35 89 15 122 82 216 190 267 45 21 70 25 135 25 98 0
152 -22 224 -89 62 -58 90 -115 101 -203 7 -54 14 -71 35 -89 36 -32 71 -29
107 7 l30 31 -6 87 c-23 288 -111 541 -263 755 -80 112 -240 270 -351 345
-200 137 -414 216 -669 247 l-51 7 -4 155 -3 155 -28 24 c-30 25 -48 28 -84
14z m123 -541 c80 -54 173 -214 232 -399 35 -109 77 -305 87 -402 l7 -66 -98
49 c-155 77 -300 96 -462 63 -76 -15 -233 -81 -246 -103 -4 -6 -12 -11 -18
-11 -24 0 32 309 88 477 63 194 175 372 259 410 41 18 108 10 151 -18z m-424
-36 c-97 -138 -215 -520 -238 -769 l-7 -72 -59 43 c-80 60 -155 86 -258 92
-98 6 -167 -6 -240 -41 l-51 -25 7 22 c16 52 78 171 132 253 148 224 383 407
636 495 100 35 102 35 78 2z m802 -24 c231 -91 439 -261 579 -470 51 -78 114
-200 131 -255 6 -21 6 -21 -42 2 -66 32 -123 43 -213 44 -113 0 -218 -37 -302
-107 -16 -12 -32 -23 -36 -23 -5 0 -11 30 -15 68 -26 265 -137 623 -237 763
l-21 30 29 -7 c15 -3 73 -24 127 -45z m-3109 -1369 c42 -26 49 -41 149 -332
121 -351 131 -375 172 -435 73 -107 201 -189 328 -212 41 -8 561 -11 1658 -11
l1598 0 0 -140 0 -140 -1782 2 -1783 3 -55 26 c-69 32 -123 79 -155 134 -33
56 -345 952 -345 990 0 41 28 91 65 115 40 26 108 26 150 0z m584 -479 c77
-24 150 -71 202 -129 40 -46 91 -142 103 -196 l7 -29 -118 5 c-102 4 -126 8
-180 32 -66 30 -137 96 -168 156 -14 28 -65 166 -65 177 0 12 168 0 219 -16z
m492 -1258 l-137 -308 -92 -3 c-51 -1 -92 1 -92 6 0 4 54 129 121 278 66 148
127 284 134 302 l14 32 95 0 94 0 -137 -307z m2203 2 c75 -167 136 -307 136
-310 0 -3 -42 -5 -92 -5 l-93 0 -112 253 c-62 138 -123 278 -137 310 l-26 57
94 0 94 0 136 -305z"/>
<path d="M310 4020 c-30 -30 -30 -83 1 -115 16 -16 36 -21 104 -24 47 -1 97 0
110 3 64 16 87 92 42 134 -21 20 -34 22 -130 22 -94 0 -109 -2 -127 -20z"/>
<path d="M1855 4015 c-34 -33 -32 -70 5 -107 30 -30 30 -30 131 -26 96 3 102
4 125 31 31 36 31 71 -1 102 -23 23 -31 25 -130 25 -99 0 -107 -2 -130 -25z"/>
<path d="M615 3479 c-40 -39 -76 -82 -79 -95 -15 -58 46 -114 101 -94 33 13
128 103 149 142 20 39 18 56 -15 89 -47 46 -72 40 -156 -42z"/>
<path d="M1675 3538 c-31 -17 -45 -39 -45 -73 0 -25 14 -44 74 -104 62 -62 80
-74 107 -74 23 0 39 8 56 27 40 47 32 71 -55 158 -78 78 -98 88 -137 66z"/>
<path d="M1155 3315 c-23 -22 -25 -31 -25 -125 0 -94 2 -103 25 -125 32 -33
83 -34 113 -2 20 21 22 34 22 128 0 97 -2 107 -23 127 -32 30 -81 29 -112 -3z"/>
</g>
</svg>
