<?xml version="1.0" standalone="no"?>
<!DOCTYPE svg PUBLIC "-//W3C//DTD SVG 20010904//EN"
 "http://www.w3.org/TR/2001/REC-SVG-20010904/DTD/svg10.dtd">
<svg version="1.0" xmlns="http://www.w3.org/2000/svg"
 width="512.000000pt" height="512.000000pt" viewBox="0 0 512.000000 512.000000"
 preserveAspectRatio="xMidYMid meet">

<g transform="translate(0.000000,512.000000) scale(0.100000,-0.100000)"
fill="#000000" stroke="none">
<path d="M2272 4954 c-237 -34 -478 -124 -677 -251 -106 -68 -135 -99 -135
-145 0 -53 35 -88 87 -88 30 0 55 12 113 51 152 103 331 181 520 226 130 30
391 42 521 24 119 -17 260 -55 362 -95 117 -48 156 -68 267 -141 459 -303 718
-835 670 -1374 -24 -259 -122 -537 -258 -726 -60 -83 -1235 -1615 -1237 -1613
-1 2 -271 354 -600 783 -329 429 -622 816 -651 860 -155 239 -230 478 -241
765 -9 262 34 469 148 710 32 69 59 135 59 147 0 12 -12 35 -26 52 -20 24 -34
31 -63 31 -55 0 -77 -22 -132 -132 -280 -558 -225 -1226 141 -1738 37 -52 291
-385 563 -740 l496 -645 -47 -8 c-484 -79 -671 -179 -672 -360 0 -108 87 -195
264 -262 356 -134 1020 -148 1433 -29 328 94 449 272 295 436 -84 89 -264 159
-517 200 -71 11 -132 22 -133 23 -2 2 232 311 520 687 569 742 583 760 656
899 125 235 181 454 189 739 6 188 -8 316 -49 470 -141 533 -529 961 -1045
1155 -245 93 -562 127 -821 89z m126 -4298 c92 -113 136 -112 223 5 59 81 54
80 252 54 202 -27 390 -86 457 -144 l25 -21 -25 -21 c-208 -179 -1034 -225
-1475 -82 -128 41 -197 85 -180 113 42 68 388 165 606 169 l56 1 61 -74z"/>
<path d="M2285 4625 c-298 -55 -546 -185 -746 -392 -164 -169 -260 -330 -329
-552 -110 -353 -66 -754 116 -1066 203 -346 524 -579 914 -662 119 -25 420
-25 537 0 163 35 395 130 436 178 27 33 22 86 -12 120 -37 36 -71 37 -135 3
-129 -69 -315 -122 -478 -138 -85 -8 -270 9 -369 34 -291 75 -551 266 -710
524 -107 175 -159 349 -166 564 -6 157 4 245 43 381 101 347 379 642 722 766
673 243 1401 -169 1548 -875 25 -119 25 -337 0 -450 -23 -105 -67 -233 -112
-322 -19 -37 -34 -79 -34 -94 0 -39 50 -84 95 -84 48 0 77 30 125 133 319 682
49 1471 -620 1807 -108 54 -267 106 -383 125 -111 18 -344 18 -442 0z"/>
<path d="M1243 4385 c-61 -26 -72 -97 -24 -146 38 -37 79 -38 121 -3 27 24 31
32 28 72 -2 35 -9 49 -28 63 -37 26 -61 30 -97 14z"/>
<path d="M2426 4120 c-122 -22 -250 -120 -306 -234 -40 -81 -53 -171 -48 -331
4 -110 8 -139 30 -192 l25 -61 -47 -35 c-150 -112 -257 -320 -262 -509 -2 -69
11 -100 49 -117 16 -8 226 -11 648 -11 l624 0 26 23 c57 48 38 213 -42 377
-39 81 -60 108 -138 186 l-92 92 23 68 c21 61 24 88 24 225 0 130 -3 168 -20
223 -25 80 -95 176 -163 222 -94 64 -222 93 -331 74z m155 -191 c19 -7 49 -23
68 -37 l34 -25 -54 -25 c-143 -64 -359 -114 -359 -83 0 20 31 74 59 104 61 66
168 94 252 66z m177 -351 c-3 -67 -12 -128 -20 -149 -57 -135 -219 -193 -346
-124 -82 45 -131 122 -132 211 l0 42 68 6 c91 10 234 48 334 90 46 19 87 35
92 35 5 1 7 -49 4 -111z m-432 -450 c65 -31 75 -33 184 -33 110 0 118 2 183
33 l68 33 50 -37 c85 -62 164 -179 184 -271 l7 -33 -496 0 -495 0 15 53 c20
66 56 129 108 185 33 37 111 102 121 102 2 0 34 -15 71 -32z"/>
<path d="M3399 2515 c-32 -17 -54 -66 -45 -101 9 -34 53 -74 82 -74 52 0 104
47 104 94 0 29 -24 68 -51 82 -35 17 -57 17 -90 -1z"/>
</g>
</svg>
