<?xml version="1.0" standalone="no"?>
<!DOCTYPE svg PUBLIC "-//W3C//DTD SVG 20010904//EN"
 "http://www.w3.org/TR/2001/REC-SVG-20010904/DTD/svg10.dtd">
<svg version="1.0" xmlns="http://www.w3.org/2000/svg"
 width="512.000000pt" height="512.000000pt" viewBox="0 0 512.000000 512.000000"
 preserveAspectRatio="xMidYMid meet">

<g transform="translate(0.000000,512.000000) scale(0.100000,-0.100000)"
fill="#000000" stroke="none">
<path d="M2297 4219 c-738 -78 -1413 -486 -1824 -1104 -185 -279 -302 -557
-372 -885 -68 -320 -66 -706 4 -1040 25 -120 75 -283 92 -302 15 -17 137 -18
2368 -18 2228 0 2353 1 2367 18 24 27 79 232 109 404 61 350 46 703 -46 1064
-166 651 -616 1231 -1210 1560 -295 164 -594 259 -933 299 -135 16 -424 18
-555 4z m602 -124 c789 -115 1464 -605 1816 -1319 165 -334 245 -677 245
-1052 0 -253 -29 -468 -90 -673 l-21 -71 -64 0 c-36 0 -65 4 -65 8 0 5 11 46
25 92 131 437 118 949 -36 1386 -291 829 -1033 1419 -1901 1513 -123 14 -378
14 -488 1 -281 -33 -507 -99 -755 -219 -458 -223 -816 -581 -1044 -1042 -155
-313 -232 -643 -232 -1001 0 -232 27 -428 87 -631 13 -45 24 -88 24 -94 0 -9
-19 -13 -60 -13 -71 0 -64 -9 -104 150 -138 558 -79 1122 169 1635 112 229
249 426 425 609 413 427 920 674 1515 735 120 13 425 5 554 -14z m-391 -392
l-3 -178 -95 -7 c-356 -27 -744 -187 -1020 -422 l-65 -55 -122 121 -123 122
28 29 c43 46 189 159 283 221 308 200 726 334 1077 345 l42 1 -2 -177z m258
166 c399 -39 773 -184 1093 -424 53 -40 118 -92 144 -116 l48 -44 -124 -124
-125 -123 -73 62 c-282 237 -663 395 -1006 417 l-103 6 0 179 c0 166 1 178 18
178 10 0 68 -5 128 -11z m37 -475 c62 -9 119 -19 128 -23 14 -5 8 -34 -41
-216 -31 -115 -60 -223 -64 -238 -6 -25 -10 -28 -34 -23 -87 19 -232 25 -331
15 -58 -6 -117 -11 -130 -12 -23 -2 -26 7 -81 210 -32 117 -61 224 -64 237 -6
23 -2 25 48 36 159 33 398 39 569 14z m-658 -334 c40 -150 78 -277 83 -282 14
-14 45 -13 152 7 111 20 325 16 425 -9 52 -13 62 -13 82 -1 12 8 24 22 27 32
2 10 35 131 71 268 37 138 69 253 71 257 3 4 29 -2 60 -12 59 -20 244 -100
244 -105 0 -2 -63 -113 -140 -246 -77 -134 -140 -253 -140 -264 0 -29 7 -36
90 -91 100 -66 224 -191 291 -292 34 -52 62 -85 77 -89 17 -4 82 29 264 133
133 77 245 140 249 142 18 7 141 -280 126 -294 -3 -3 -124 -37 -269 -76 -163
-44 -270 -77 -282 -89 -19 -17 -19 -20 -1 -121 23 -128 23 -313 1 -418 -21
-99 -20 -117 7 -133 12 -8 140 -45 284 -83 197 -52 263 -73 263 -84 0 -8 -19
-62 -43 -120 l-42 -105 -1527 -3 -1528 -2 -24 47 c-43 86 -77 193 -63 198 6 3
129 36 272 74 268 72 303 88 291 130 -3 9 -12 56 -21 105 -25 144 -17 326 20
468 12 47 -14 59 -267 126 -130 35 -253 68 -272 73 l-35 10 26 72 c33 93 94
227 103 227 4 0 103 -56 221 -123 271 -157 276 -159 300 -152 11 4 42 41 71
83 64 97 211 243 305 305 45 29 75 56 78 70 5 18 -28 83 -134 267 -78 135
-141 247 -141 251 0 13 289 133 298 124 2 -2 37 -126 77 -275z m-1021 21 l119
-120 -39 -46 c-151 -178 -285 -416 -356 -630 -42 -125 -75 -287 -86 -420 l-7
-90 -175 0 -175 0 3 80 c8 233 83 534 195 778 46 100 129 240 204 345 61 85
179 222 191 222 4 0 61 -54 126 -119z m3083 37 c221 -263 370 -553 453 -882
30 -120 60 -324 60 -412 l0 -54 -170 0 c-128 0 -172 3 -174 13 -2 6 -9 64 -15
127 -36 355 -187 707 -415 971 l-64 74 121 123 c67 67 125 122 128 122 4 0 38
-37 76 -82z m-2416 -178 c65 -113 119 -208 119 -212 0 -3 -28 -26 -62 -51 -72
-51 -208 -189 -256 -259 -18 -27 -35 -48 -38 -48 -3 0 -83 44 -177 99 -237
136 -247 142 -247 150 0 19 170 227 247 303 91 89 271 230 287 225 5 -2 62
-95 127 -207z m1767 148 c141 -100 332 -302 422 -443 l19 -31 -215 -124 c-189
-108 -217 -122 -226 -107 -45 82 -208 247 -308 314 l-40 26 26 46 c100 179
220 381 227 381 5 0 48 -28 95 -62z m-2398 -1053 c118 -31 218 -60 223 -64 4
-4 2 -32 -4 -62 -14 -73 -14 -299 1 -378 6 -34 10 -65 8 -67 -5 -5 -452 -124
-465 -124 -39 0 -68 388 -43 577 20 147 30 185 48 180 10 -2 114 -30 232 -62z
m3068 1 c24 -126 34 -282 28 -399 -6 -108 -31 -285 -41 -296 -3 -2 -111 25
-241 59 l-236 64 9 60 c10 78 10 301 0 386 l-8 65 228 62 c125 34 233 62 239
62 6 1 16 -28 22 -63z m-3465 -468 c11 -169 58 -366 126 -535 l21 -53 -189 0
c-186 0 -188 0 -198 23 -20 43 -72 242 -88 330 -12 75 -35 275 -35 315 0 9 42
12 178 12 l179 0 6 -92z m3954 -10 c-10 -161 -66 -435 -111 -543 l-15 -35
-185 0 c-103 0 -186 3 -186 6 0 3 5 15 11 27 19 34 77 212 94 285 21 89 45
255 45 315 l0 47 177 0 176 0 -6 -102z"/>
<path d="M2534 2660 c-12 -4 -24 -16 -28 -25 -3 -10 -67 -290 -142 -623 -128
-572 -134 -608 -124 -656 23 -108 92 -195 188 -238 66 -30 189 -30 254 -1 66
30 142 104 167 164 43 98 43 96 -103 749 -150 667 -147 657 -212 630z m131
-799 c112 -502 112 -501 56 -571 -77 -97 -219 -109 -309 -26 -34 31 -62 90
-62 132 0 19 45 237 100 483 55 245 100 451 101 456 2 23 16 -38 114 -474z"/>
</g>
</svg>
