<?xml version="1.0" standalone="no"?>
<!DOCTYPE svg PUBLIC "-//W3C//DTD SVG 20010904//EN"
 "http://www.w3.org/TR/2001/REC-SVG-20010904/DTD/svg10.dtd">
<svg version="1.0" xmlns="http://www.w3.org/2000/svg"
 width="512.000000pt" height="512.000000pt" viewBox="0 0 512.000000 512.000000"
 preserveAspectRatio="xMidYMid meet">

<g transform="translate(0.000000,512.000000) scale(0.100000,-0.100000)"
fill="#000000" stroke="none">
<path d="M16 4574 c-14 -14 -16 -210 -16 -2014 0 -1804 2 -2000 16 -2014 14
-14 259 -16 2544 -16 2285 0 2530 2 2544 16 14 14 16 210 16 2014 0 1804 -2
2000 -16 2014 -14 14 -259 16 -2544 16 -2285 0 -2530 -2 -2544 -16z m5024
-2014 l0 -1950 -2480 0 -2480 0 0 1950 0 1950 2480 0 2480 0 0 -1950z"/>
<path d="M361 4323 c-19 -10 -48 -35 -65 -56 l-31 -39 -3 -1654 c-2 -1637 -2
-1655 18 -1694 11 -21 36 -51 57 -67 l36 -28 2187 0 2187 0 36 28 c21 16 46
46 57 67 20 39 20 61 20 1680 0 1619 0 1641 -20 1680 -11 21 -36 51 -57 67
l-36 28 -2176 3 c-2057 2 -2178 1 -2210 -15z m4390 -92 l29 -29 0 -1642 0
-1642 -29 -29 -29 -29 -2162 0 -2162 0 -29 29 -29 29 0 1642 0 1642 29 29 29
29 2162 0 2162 0 29 -29z"/>
<path d="M3345 3762 c-47 -22 -99 -71 -122 -116 -9 -17 -18 -65 -21 -108 l-5
-78 -337 0 c-314 0 -338 -1 -353 -18 -16 -17 -17 -104 -17 -1041 0 -686 3
-1029 10 -1042 10 -19 31 -19 938 -19 709 0 931 3 940 12 9 9 12 255 12 1044
0 925 -2 1034 -16 1048 -13 14 -60 16 -354 16 l-338 0 -3 78 c-3 66 -9 86 -34
128 -44 70 -109 108 -194 112 -49 2 -77 -2 -106 -16z m171 -78 c20 -10 45 -34
59 -59 24 -40 25 -49 25 -211 0 -151 -2 -172 -20 -202 -59 -97 -199 -104 -268
-14 -27 35 -27 37 -30 211 -3 171 -2 177 20 211 51 75 136 101 214 64z m-316
-372 c0 -230 255 -344 410 -184 52 54 70 103 70 191 l0 61 315 0 315 0 0 -980
0 -980 -870 0 -870 0 0 980 0 980 315 0 315 0 0 -68z"/>
<path d="M2903 2723 c-16 -6 -17 -45 -1 -61 9 -9 143 -12 539 -12 l528 0 15
22 c11 15 12 26 5 40 -9 17 -34 18 -542 17 -293 0 -538 -3 -544 -6z"/>
<path d="M2894 2256 c-3 -8 -4 -23 -2 -33 3 -17 31 -18 543 -21 492 -2 541 -1
552 14 9 12 9 22 2 35 -9 18 -33 19 -550 19 -461 0 -540 -2 -545 -14z"/>
<path d="M2902 1808 c-17 -17 -15 -55 4 -62 9 -3 254 -6 544 -6 504 0 530 1
539 18 7 14 6 25 -5 40 l-15 22 -528 0 c-396 0 -530 -3 -539 -12z"/>
<path d="M1356 3676 c-76 -28 -126 -97 -126 -176 l0 -40 -234 0 c-200 0 -237
-2 -250 -16 -14 -14 -16 -95 -16 -744 0 -649 2 -730 16 -744 14 -14 88 -16
668 -16 494 0 655 3 664 12 9 9 12 189 12 750 0 719 0 738 -19 748 -12 6 -110
10 -249 10 l-230 0 -4 54 c-10 122 -123 201 -232 162z m127 -106 c26 -30 27
-33 27 -156 0 -125 0 -126 -29 -155 -23 -23 -38 -29 -71 -29 -33 0 -48 6 -71
29 -29 29 -29 30 -29 154 0 112 2 127 21 151 43 54 105 57 152 6z m-253 -230
c0 -45 21 -103 48 -134 25 -28 91 -56 135 -56 50 0 109 31 143 76 21 27 29 50
32 95 l4 59 209 0 209 0 0 -680 0 -680 -600 0 -600 0 0 680 0 680 210 0 210 0
0 -40z"/>
<path d="M1025 2937 c-13 -10 -16 -21 -11 -41 l6 -26 393 2 392 3 3 24 c7 50
-3 51 -398 51 -291 0 -370 -3 -385 -13z"/>
<path d="M1014 2606 c-3 -8 -4 -23 -2 -33 3 -17 25 -18 398 -18 l395 0 0 30 0
30 -393 3 c-336 2 -393 0 -398 -12z"/>
<path d="M1022 2288 c-18 -18 -15 -46 7 -58 13 -6 152 -10 383 -10 392 0 403
1 396 51 l-3 24 -385 3 c-292 2 -389 -1 -398 -10z"/>
</g>
</svg>
