<?xml version="1.0" standalone="no"?>
<!DOCTYPE svg PUBLIC "-//W3C//DTD SVG 20010904//EN"
 "http://www.w3.org/TR/2001/REC-SVG-20010904/DTD/svg10.dtd">
<svg version="1.0" xmlns="http://www.w3.org/2000/svg"
 width="837.000000pt" height="383.000000pt" viewBox="0 0 837.000000 383.000000"
 preserveAspectRatio="xMidYMid meet">

<g transform="translate(0.000000,383.000000) scale(0.100000,-0.100000)"
fill="#000000" stroke="none">
<path d="M8 3518 c-4 -792 6 -3435 13 -3453 6 -15 8 -9 8 22 1 47 31 153 43
153 4 0 8 14 8 30 0 17 5 30 10 30 6 0 10 14 10 30 0 17 5 30 10 30 6 0 10 11
10 25 0 14 4 25 9 25 5 0 12 11 15 25 4 14 11 25 16 25 6 0 10 9 10 20 0 11 5
20 10 20 6 0 10 7 10 15 0 8 5 15 10 15 6 0 10 7 10 15 0 9 11 27 25 41 14 14
25 29 25 35 0 5 15 25 33 43 43 44 77 85 77 92 0 8 93 94 102 94 4 0 18 11 32
25 14 14 30 25 36 25 5 0 10 7 10 15 0 8 8 15 18 15 10 0 24 9 32 20 8 11 23
20 34 20 10 0 26 8 35 17 18 20 119 73 139 73 6 0 12 5 12 10 0 6 14 10 30 10
17 0 30 4 30 10 0 5 16 12 35 16 19 3 35 10 35 15 0 5 15 9 34 9 19 0 38 5 41
10 3 5 28 10 56 10 27 0 49 5 49 10 0 7 1008 10 3005 10 1997 0 3005 3 3005
10 0 6 29 10 68 10 39 1 77 7 92 15 14 8 39 14 57 15 17 0 35 4 38 10 3 5 19
10 36 10 16 0 29 5 29 10 0 6 14 10 30 10 17 0 30 5 30 10 0 6 11 10 25 10 14
0 25 4 25 9 0 5 13 12 29 16 15 3 38 15 49 25 12 11 28 20 37 20 8 0 15 5 15
10 0 6 9 10 20 10 12 0 32 10 45 23 36 33 53 47 60 47 3 0 16 10 29 23 13 12
36 31 52 42 43 31 174 165 174 178 0 16 44 67 59 67 6 0 11 11 11 25 0 14 5
25 10 25 6 0 10 8 10 18 0 10 9 24 20 32 11 8 20 21 20 30 0 8 7 24 15 34 8
11 15 28 15 38 0 10 5 18 10 18 6 0 10 11 10 25 0 14 5 25 10 25 6 0 10 14 10
30 0 17 4 30 9 30 5 0 11 12 14 28 18 89 31 132 38 132 5 0 9 41 9 90 0 53 4
90 10 90 7 0 10 242 10 705 l0 705 -4180 0 -4180 0 -2 -312z"/>
</g>
</svg>
