<svg xmlns="http://www.w3.org/2000/svg" enable-background="new 0 0 70 70" viewBox="0 0 70 70"><path d="M34.7607422 17.4887085c-.4042969.0117188-.7617188.2646484-.90625.6416016l-.8710938 2.2705078c-.1455078.3779297-.0478516.8066406.2460938 1.0849609l2.1835938 2.0673828c-.0214844.5166016-.0068359 1.0263672.0439453 1.5263672l-2.0751953 2.1855469c-.2783203.2929688-.3525391.7255859-.1875 1.0957031l.9912109 2.2255859c.1601563.3613281.5185547.5927734.9130859.5927734.0087891 0 .0175781 0 .0273438 0l3.0126953-.0820313c.3378906.3710938.7070313.7236328 1.1054688 1.0517578l.0771484 3.0068359c.0107422.4052734.2636719.7636719.6416016.9082031l2.2705078.8710938c.1171875.0449219.2382813.0664063.3583984.0664063.2695313 0 .5332031-.109375.7255859-.3125l2.0693359-2.1835938c.5068359.0234375 1.0195313.0097656 1.5263672-.0380859l2.1855469 2.0703125c.2929688.2763672.7255859.3525391 1.0947266.1865234l2.2255859-.9912109c.3691406-.1640625.6025391-.5351563.5927734-.9394531l-.0791016-3.0087891c.3730469-.3447266.7246094-.7167969 1.0498047-1.1103516l3.0068359-.078125c.4042969-.0107422.7626953-.2636719.9072266-.6416016l.8710938-2.2695313c.1455078-.3779297.0478516-.8056641-.2460938-1.0839844l-2.1835938-2.0693359c.0214844-.5166016.0068359-1.0263672-.0439453-1.5263672l2.0751953-2.1855469c.2792969-.2929688.3535156-.7255859.1884766-1.0957031l-.9921875-2.2255859c-.1611328-.3613281-.5195313-.5927734-.9130859-.5927734-.0087891 0-.0175781 0-.0273438 0l-3.0126953.0820313c-.3388672-.3720703-.7080078-.7236328-1.1054688-1.0517578l-.0771484-3.0068359c-.0107422-.4052734-.2636719-.7636719-.6416016-.9082031l-2.2705078-.8710938c-.3798828-.1464844-.8066406-.0488281-1.0839844.2451172l-2.0771484 2.1875c-.4970703-.0205078-1.0019531-.0048828-1.5048828.0458984l-2.1992188-2.0810547c-.2939453-.2773438-.7255859-.3525391-1.0947266-.1865234l-2.2255859.9912109c-.3691406.1640625-.6025391.5341797-.5927734.9384766l.0771484 3.0283203c-.375.3408203-.7226563.7041016-1.0400391 1.0878906L34.7607422 17.4887085zM39.0751953 18.9916382c.3945313-.5302734.8623047-1.0195313 1.3896484-1.4541016.2363281-.1953125.3710938-.4892578.3632813-.796875l-.0722656-2.8339844 1.0058594-.4482422 2.0585938 1.9482422c.2246094.2119141.5390625.3056641.8359375.2626953.6748047-.1025391 1.3525391-.125 2.0107422-.0615234.3027344.0332031.6064453-.0849609.8173828-.3076172l1.9404297-2.0439453 1.0224609.3925781.0722656 2.8056641c.0078125.3046875.1542969.5888672.3964844.7724609.5576172.421875 1.0556641.8964844 1.4794922 1.4101563.1962891.2373047.4960938.375.7988281.3632813l2.8164063-.0771484.4482422 1.0039063-1.9404297 2.0439453c-.2128906.2236328-.3105469.5322266-.2646484.8369141.0986328.6572266.1191406 1.3447266.0605469 2.0439453-.0263672.3027344.0878906.6005859.3085938.8095703l2.0380859 1.9306641-.3925781 1.0214844-2.8066406.0732422c-.3037109.0078125-.5878906.1542969-.7714844.3964844-.4169922.5517578-.8935547 1.0556641-1.4160156 1.4990234-.2314453.1953125-.3613281.4863281-.3535156.7890625l.0732422 2.8066406-1.0048828.4472656-2.0390625-1.9306641c-.2197266-.2080078-.5244141-.3046875-.8222656-.2646484-.6806641.0927734-1.3720703.109375-2.0615234.0517578-.3007813-.03125-.6005859.0878906-.8095703.3085938l-1.9306641 2.0380859-1.0224609-.3925781-.0722656-2.8056641c-.0078125-.3046875-.1542969-.5888672-.3964844-.7724609-.5595703-.4228516-1.0576172-.8974609-1.4794922-1.4091797-.1943359-.2373047-.484375-.3515625-.7988281-.3642578l-2.8164063.0771484-.4472656-1.0039063 1.9404297-2.0439453c.2119141-.2236328.3095703-.5322266.2636719-.8369141-.0986328-.6572266-.1191406-1.3447266-.0605469-2.0439453.0263672-.3027344-.0878906-.6005859-.3085938-.8105469l-2.0380859-1.9296875.3925781-1.0224609 2.8183594-.0761719C38.6064453 19.3851929 38.8925781 19.2367554 39.0751953 18.9916382zM11.6162109 41.6293335C11.2431641 41.7846069 11 42.1488647 11 42.5531616v2.7607422c0 .4042969.2431641.7685547.6162109.9238281l3.2265625 1.3398438c.1865234.5800781.4160156 1.1396484.6845703 1.6728516l-1.3291016 3.2158203c-.1552734.3730469-.0693359.8037109.2167969 1.0888672l1.9482422 1.9472656c.2871094.2871094.7167969.3710938 1.0898438.2167969l3.2041016-1.3291016c.5527344.2783203 1.1201172.5117188 1.6943359.6972656l1.3291016 3.2119141c.1542969.3740234.5195313.6181641.9238281.6181641h2.7607422c.4042969 0 .7695313-.2441406.9238281-.6181641l1.3291016-3.2119141c.5732422-.1865234 1.140625-.4199219 1.6943359-.6972656l3.2041016 1.3291016c.3740234.1533203.8027344.0703125 1.0898438-.2167969l1.9482422-1.9472656c.2861328-.2861328.3720703-.7167969.2167969-1.0898438l-1.3300781-3.2050781c.2744141-.5458984.5107422-1.1123047.7041016-1.6923828l3.2070313-1.3300781c.3740234-.1552734.6171875-.5195313.6171875-.9238281v-2.7607422c0-.4042969-.2431641-.7685547-.6171875-.9238281l-3.2070313-1.3310547c-.1933594-.5800781-.4296875-1.1464844-.7041016-1.6923828l1.3300781-3.203125c.1552734-.3740234.0693359-.8046875-.2167969-1.0908203l-1.9482422-1.9482422c-.2861328-.2861328-.7158203-.3681641-1.0898438-.2167969l-3.2050781 1.3291016c-.5546875-.2783203-1.1210938-.5117188-1.6933594-.6972656l-1.3291016-3.2119141c-.1542969-.3740234-.5195313-.6181641-.9238281-.6181641h-2.7607422c-.4042969 0-.7695313.2441406-.9238281.6181641l-1.3291016 3.2119141c-.5722656.1855469-1.1396484.4189453-1.6933594.6972656l-3.2050781-1.3291016c-.3740234-.1523438-.8037109-.0693359-1.0898438.2167969l-1.9482422 1.9482422c-.2861328.2861328-.3710938.7158203-.2167969 1.0888672l1.3291016 3.2148438c-.2685547.5332031-.4980469 1.09375-.6845703 1.6738281L11.6162109 41.6293335zM16.0478516 41.9545288c.2841797-.1181641.4980469-.3603516.5800781-.6572266.2099609-.7578125.5048828-1.4775391.8759766-2.1376953.1503906-.2675781.1689453-.5888672.0517578-.8720703l-1.2539063-3.0332031 1.0029297-1.0039063 3.0205078 1.2529297c.28125.1162109.6005859.0976563.8652344-.0478516.7050781-.3886719 1.4355469-.6894531 2.1708984-.8925781.296875-.0820313.5400391-.296875.6572266-.5820313l1.2548828-3.0322266h1.4228516l1.2548828 3.0322266c.1171875.2851563.359375.4990234.65625.5820313.734375.203125 1.4658203.5039063 2.171875.8925781.2675781.1455078.5849609.1640625.8652344.0478516l3.0205078-1.2529297 1.0029297 1.0029297-1.2539063 3.0195313c-.1162109.28125-.0986328.6005859.0488281.8671875.3808594.6904297.6865234 1.4248047.9082031 2.1835938.0849609.2910156.296875.5273438.5771484.6435547l3.0214844 1.2539063v1.4248047l-3.0214844 1.2529297c-.2802734.1162109-.4921875.3525391-.5771484.6435547-.2216797.7587891-.5273438 1.4931641-.9082031 2.1835938-.1474609.2666016-.1650391.5859375-.0488281.8662109l1.2539063 3.0214844-1.0029297 1.0019531-3.0205078-1.2529297c-.2802734-.1162109-.5996094-.0986328-.8662109.0478516-.7021484.3876953-1.4326172.6884766-2.1708984.8925781-.296875.0830078-.5390625.296875-.65625.5820313l-1.2548828 3.0322266h-1.4228516l-1.2548828-3.0322266c-.1171875-.2851563-.3603516-.5-.6572266-.5820313-.7382813-.2041016-1.46875-.5048828-2.1699219-.8916016-.265625-.1474609-.5849609-.1650391-.8662109-.0488281l-3.0205078 1.2529297-1.0029297-1.0029297 1.2539063-3.0341797c.1171875-.2832031.0986328-.6044922-.0517578-.8720703-.3710938-.6601563-.6660156-1.3789063-.8759766-2.1376953-.0820313-.2958984-.2958984-.5380859-.5800781-.65625L13 44.6469116v-1.4267578L16.0478516 41.9545288zM58.3828125 47.746521l-1.7646484-.7314453c-.0888672-.2490234-.1914063-.4941406-.3046875-.7333984l.7314453-1.7626953c.1552734-.3730469.0693359-.8037109-.2167969-1.0898438l-1.1728516-1.1728516c-.2861328-.2861328-.7177734-.3691406-1.0898438-.2167969l-1.7636719.7314453c-.2412109-.1142578-.4863281-.2148438-.7333984-.3027344l-.7304688-1.765625c-.1542969-.3740234-.5195313-.6181641-.9238281-.6181641h-1.6611328c-.4042969 0-.7695313.2441406-.9238281.6171875l-.7314453 1.7675781c-.2470703.0869141-.4921875.1875-.7333984.3017578l-1.7636719-.7314453c-.3730469-.1533203-.8027344-.0703125-1.0898438.2167969l-1.171875 1.1728516c-.2861328.2861328-.3710938.7158203-.2167969 1.0888672l.7314453 1.7695313c-.1113281.234375-.2099609.4755859-.2958984.7226563l-1.7744141.7363281c-.3730469.1552734-.6162109.5195313-.6162109.9238281v1.6621094c0 .4042969.2431641.7685547.6162109.9238281l1.7744141.7363281c.0859375.2470703.1845703.4882813.2958984.7226563l-.7314453 1.7695313c-.1542969.3730469-.0693359.8027344.2167969 1.0888672l1.171875 1.171875c.2871094.2871094.7197266.3701172 1.0898438.2167969l1.7626953-.7314453c.2412109.1142578.4863281.2148438.734375.3027344l.7314453 1.7666016c.1542969.3730469.5195313.6171875.9238281.6171875h1.6611328c.4042969 0 .7695313-.2441406.9238281-.6181641l.7304688-1.765625c.2480469-.0869141.4931641-.1884766.734375-.3027344l1.7626953.7314453c.3740234.1533203.8027344.0693359 1.0898438-.2167969l1.1728516-1.171875c.2861328-.2861328.3720703-.7158203.2167969-1.0898438l-.7314453-1.7626953c.1132813-.2392578.2158203-.484375.3046875-.7333984l1.7646484-.7314453C58.7568359 51.1010132 59 50.7367554 59 50.3324585v-1.6621094C59 48.2660522 58.7568359 47.9017944 58.3828125 47.746521zM57 49.6644897l-1.5722656.6523438c-.2802734.1162109-.4921875.3525391-.5771484.6435547-.125.4267578-.296875.8417969-.5136719 1.234375-.1464844.2666016-.1640625.5849609-.0478516.8652344l.6523438 1.5722656-.2275391.2265625-1.5722656-.6523438c-.28125-.1162109-.5996094-.0986328-.8671875.0488281-.3925781.2177734-.8027344.3857422-1.21875.5009766-.296875.0820313-.5400391.296875-.6572266.5820313l-.6533203 1.5791016h-.3242188l-.6533203-1.5800781c-.1171875-.2841797-.3603516-.4990234-.6572266-.5810547-.4150391-.1152344-.8251953-.2832031-1.2197266-.5019531-.2675781-.1464844-.5849609-.1640625-.8662109-.0478516l-1.5722656.6523438-.2275391-.2275391.6533203-1.5800781c.1171875-.2832031.0986328-.6035156-.0517578-.8710938-.2080078-.3710938-.3730469-.7744141-.4902344-1.1982422-.0820313-.296875-.2958984-.5390625-.5800781-.6572266l-1.5888672-.6591797v-.328125l1.5888672-.6591797c.2841797-.1181641.4980469-.3603516.5800781-.6572266.1171875-.4238281.2822266-.8271484.4902344-1.1982422.1503906-.2675781.1689453-.5878906.0517578-.8710938l-.6533203-1.5810547.2275391-.2275391 1.5722656.6523438c.2802734.1152344.5976563.0976563.8642578-.0478516.3994141-.21875.8105469-.3876953 1.2216797-.5019531.296875-.0820313.5400391-.296875.6572266-.5810547l.6533203-1.5800781h.3242188l.6533203 1.5791016c.1171875.2851563.3603516.5.6572266.5820313.4121094.1142578.8232422.2832031 1.2207031.5019531.265625.1455078.5839844.1630859.8652344.0478516l1.5722656-.6523438.2275391.2275391-.6523438 1.5722656c-.1162109.2802734-.0986328.5986328.0478516.8652344.2167969.3925781.3886719.8076172.5136719 1.234375.0849609.2910156.296875.5273438.5771484.6435547L57 49.3383179V49.6644897z"/><path d="M45.8769531 29.340271c2.921875 0 5.2998047-2.3779297 5.2998047-5.2998047s-2.3779297-5.2998047-5.2998047-5.2998047c-2.9228516 0-5.3007813 2.3779297-5.3007813 5.2998047S42.9541016 29.340271 45.8769531 29.340271zM45.8769531 20.7406616c1.8193359 0 3.2998047 1.4804688 3.2998047 3.2998047s-1.4804688 3.2998047-3.2998047 3.2998047c-1.8203125 0-3.3007813-1.4804688-3.3007813-3.2998047S44.0566406 20.7406616 45.8769531 20.7406616zM25.9863281 49.8109741c3.2363281 0 5.8701172-2.6376953 5.8701172-5.8798828 0-3.2363281-2.6337891-5.8701172-5.8701172-5.8701172-3.2421875 0-5.8798828 2.6337891-5.8798828 5.8701172C20.1064453 47.1732788 22.7441406 49.8109741 25.9863281 49.8109741zM25.9863281 40.0609741c2.1337891 0 3.8701172 1.7363281 3.8701172 3.8701172 0 2.1396484-1.7363281 3.8798828-3.8701172 3.8798828-2.1396484 0-3.8798828-1.7402344-3.8798828-3.8798828C22.1064453 41.7973022 23.8466797 40.0609741 25.9863281 40.0609741zM49.5869141 46.2611694c-1.7919922 0-3.25 1.453125-3.25 3.2392578 0 1.7871094 1.4580078 3.2402344 3.25 3.2402344 1.7861328 0 3.2392578-1.453125 3.2392578-3.2402344C52.8261719 47.7142944 51.3730469 46.2611694 49.5869141 46.2611694zM49.5869141 50.7406616c-.6894531 0-1.25-.5566406-1.25-1.2402344s.5605469-1.2392578 1.25-1.2392578c.671875 0 1.2392578.5673828 1.2392578 1.2392578S50.2587891 50.7406616 49.5869141 50.7406616z"/></svg>