<?xml version="1.0" standalone="no"?>
<!DOCTYPE svg PUBLIC "-//W3C//DTD SVG 20010904//EN"
 "http://www.w3.org/TR/2001/REC-SVG-20010904/DTD/svg10.dtd">
<svg version="1.0" xmlns="http://www.w3.org/2000/svg"
 width="512.000000pt" height="512.000000pt" viewBox="0 0 512.000000 512.000000"
 preserveAspectRatio="xMidYMid meet">

<g transform="translate(0.000000,512.000000) scale(0.100000,-0.100000)"
fill="#000000" stroke="none">
<path d="M1698 5104 c-443 -68 -820 -402 -968 -854 -48 -146 -64 -271 -57
-449 7 -205 41 -343 126 -516 54 -111 153 -260 194 -294 9 -7 17 -17 17 -22 0
-5 -31 -24 -69 -43 -191 -97 -419 -286 -557 -461 -177 -227 -299 -498 -356
-787 -20 -106 -22 -147 -26 -636 l-3 -522 30 -30 29 -30 1292 0 1291 0 29 -34
c39 -44 101 -69 151 -61 24 4 77 34 145 81 70 49 110 72 117 65 6 -6 2 -52
-13 -131 -12 -67 -20 -135 -16 -152 10 -51 44 -95 89 -116 56 -26 547 -116
590 -108 50 9 94 41 115 83 11 21 28 86 37 145 19 114 26 135 44 124 6 -4 38
-47 71 -96 33 -49 72 -100 86 -114 36 -33 100 -48 146 -35 51 14 477 316 505
358 27 40 31 116 9 159 -8 15 -41 67 -74 115 -61 89 -69 121 -28 112 234 -49
273 -48 339 13 36 34 46 74 98 369 47 266 46 289 -6 351 -32 38 -76 55 -202
78 -59 11 -105 24 -108 31 -2 7 13 26 34 41 21 15 68 48 105 75 89 63 108 95
104 172 -4 59 -7 64 -162 293 -87 128 -169 240 -182 248 -34 23 -89 33 -129
24 -19 -4 -81 -40 -136 -79 -69 -49 -105 -69 -112 -62 -7 7 -3 50 11 133 27
154 18 200 -51 252 -27 21 -77 33 -303 75 -149 28 -279 51 -289 51 -35 0 -104
-41 -125 -75 -11 -19 -30 -80 -40 -137 -28 -144 -29 -148 -43 -148 -6 0 -25
21 -41 46 -58 92 -117 165 -149 184 -39 24 -116 26 -158 5 -28 -15 -31 -15
-102 33 -39 27 -108 68 -152 92 -44 24 -82 45 -84 47 -3 2 9 18 26 36 79 83
180 252 233 387 73 189 100 465 65 670 -78 472 -397 854 -835 1000 -168 57
-369 73 -552 44z m447 -183 c104 -28 262 -105 350 -172 429 -324 565 -921 321
-1408 -233 -465 -753 -695 -1231 -544 -549 173 -866 770 -715 1347 105 400
425 709 820 792 100 21 353 12 455 -15z m-887 -2157 c99 -63 234 -120 361
-151 93 -24 126 -27 266 -27 263 1 442 55 662 200 l82 55 66 -30 c36 -17 104
-53 151 -82 l85 -51 -38 -27 c-21 -15 -84 -60 -141 -100 -56 -40 -110 -84
-120 -99 -12 -18 -17 -46 -17 -92 0 -65 0 -66 74 -173 50 -72 71 -111 64 -118
-6 -6 -44 -3 -114 11 -152 29 -195 25 -248 -23 -37 -35 -46 -66 -96 -342 -50
-279 -52 -323 -15 -375 30 -43 83 -64 207 -86 64 -11 104 -22 107 -31 4 -9
-31 -41 -97 -89 -180 -132 -188 -179 -59 -371 45 -68 82 -125 82 -128 0 -3
-336 -5 -747 -5 l-748 0 3 230 3 231 -31 31 c-26 25 -36 29 -63 24 -71 -14
-80 -54 -75 -325 l3 -191 -348 0 -348 0 4 482 c3 449 5 489 25 576 114 495
411 885 835 1098 102 51 111 54 131 39 12 -8 54 -36 94 -61z m2655 -59 c127
-25 232 -47 234 -49 2 -2 -8 -68 -22 -146 -15 -78 -24 -153 -21 -166 4 -13 19
-31 34 -40 15 -9 50 -32 78 -50 75 -50 92 -47 227 46 63 44 120 80 125 80 5 0
70 -91 144 -203 l135 -202 -126 -90 -126 -90 1 -50 c2 -98 16 -159 43 -186 22
-21 47 -29 165 -49 89 -15 140 -28 143 -37 6 -15 -76 -474 -86 -484 -3 -3 -67
5 -142 19 -76 14 -147 22 -162 18 -34 -8 -127 -147 -127 -191 0 -20 25 -67 81
-151 45 -68 78 -127 75 -133 -4 -5 -73 -56 -154 -112 -81 -57 -168 -118 -193
-136 l-46 -33 -82 120 c-46 66 -93 127 -106 136 -21 14 -32 14 -116 -5 -55
-12 -100 -27 -111 -38 -13 -13 -27 -63 -46 -164 l-28 -144 -34 1 c-41 2 -439
80 -447 88 -3 2 6 69 21 147 21 118 23 147 13 168 -16 34 -144 120 -180 120
-35 1 -43 -3 -173 -94 l-107 -75 -138 207 c-76 114 -135 210 -131 214 4 3 50
37 102 74 131 94 140 103 140 139 0 62 -28 179 -48 198 -13 14 -62 29 -157 48
-75 16 -140 31 -143 35 -3 3 14 113 38 245 41 221 46 240 64 240 12 0 67 -9
124 -20 136 -26 173 -26 198 3 39 44 94 146 94 174 0 18 -27 68 -80 148 -44
66 -80 123 -80 127 0 9 385 278 397 278 4 -1 44 -54 88 -120 51 -75 90 -123
106 -130 37 -16 185 15 217 45 18 16 28 49 48 155 28 149 30 160 40 160 4 0
111 -20 237 -45z"/>
<path d="M3536 2035 c-150 -41 -301 -167 -368 -305 -48 -99 -63 -166 -61 -275
1 -164 72 -318 196 -431 109 -98 230 -144 383 -144 519 -1 773 637 400 1005
-119 118 -238 166 -407 164 -52 0 -116 -7 -143 -14z m266 -165 c122 -37 200
-108 259 -233 63 -135 47 -296 -41 -419 -160 -224 -479 -235 -653 -22 -187
230 -89 575 192 671 82 28 159 29 243 3z"/>
</g>
</svg>
